<?xml version="1.0" encoding="utf-8"?>
<!-- Generator: Adobe Illustrator 23.0.1, SVG Export Plug-In . SVG Version: 6.00 Build 0)  -->
<svg version="1.1" id="Calque_1" xmlns="http://www.w3.org/2000/svg" xmlns:xlink="http://www.w3.org/1999/xlink" x="0px" y="0px"
	 viewBox="0 0 100 100" style="enable-background:new 0 0 100 100;" xml:space="preserve">
<style type="text/css">
	.st0{fill:#C5C5C5;stroke:#000000;stroke-width:4;stroke-miterlimit:10;}
	.st1{fill:#FFFFFF;}
	.st2{fill:none;stroke:#000000;stroke-width:4;stroke-miterlimit:10;}
</style>
<rect y="0" class="st0" width="100" height="100"/>
<path d="M33.5,65.1c1.8-1.5,2.1-3.3,2.1-4.9v-6.9H26v9.3c0,1.3-1.1,2.4-2.4,2.4s-2.3-1.1-2.3-2.4V36.2c0-1.3,1-2.4,2.3-2.4
	s2.4,1.1,2.4,2.4v9.4h9.6v-9.7c0-5.4-3.5-9.8-12.1-9.8l0,0c-8.8,0-12.1,4.5-12.1,9.8v27.6c0,5.3,4.2,9.4,9.7,9.4h3L33.5,65.1z"/>
<polygon points="71.3,66.2 71.3,35.9 64.7,35.9 64.7,27 88.7,27 88.7,35.9 82,35.9 82,72.8 79.2,72.8 "/>
<polygon class="st1" points="75.6,72.9 52.3,53.3 28.1,72.9 "/>
<path d="M49.7,48l2.6-13.2L54.9,48H49.7z M58.9,27H45.5l-7.8,35l14.5-11.7L67.3,63L58.9,27"/>
<line class="st2" x1="0" y1="100" x2="100" y2="0"/>
<line class="st2" x1="100" y1="100" x2="0" y2="0.1"/>
</svg>
