<?xml version="1.0" encoding="utf-8"?>
<!-- Generator: Adobe Illustrator 23.0.1, SVG Export Plug-In . SVG Version: 6.00 Build 0)  -->
<svg version="1.1" id="Layer_1" xmlns="http://www.w3.org/2000/svg" xmlns:xlink="http://www.w3.org/1999/xlink" x="0px" y="0px"
	 viewBox="0 0 400 100" style="enable-background:new 0 0 400 100;" xml:space="preserve">
<style type="text/css">
	.st0{fill:#C5C5C5;}
	.st1{fill:#FFFFFF;}
	.st2{fill:none;}
</style>
<rect y="0" class="st0" width="300" height="100"/>
<rect x="300" y="0" width="100" height="100"/>
<path class="st1" d="M333.5,65.1c1.8-1.5,2.1-3.3,2.1-4.9v-6.9H326v9.3c0,1.3-1.1,2.4-2.4,2.4s-2.3-1.1-2.3-2.4V36.2
	c0-1.3,1-2.4,2.3-2.4s2.4,1.1,2.4,2.4v9.4h9.6v-9.7c0-5.4-3.5-9.8-12.1-9.8l0,0c-8.8,0-12.1,4.5-12.1,9.8v27.6
	c0,5.3,4.2,9.4,9.7,9.4h3L333.5,65.1z"/>
<polygon class="st1" points="371.3,66.2 371.3,35.9 364.7,35.9 364.7,27 388.7,27 388.7,35.9 382,35.9 382,72.8 379.2,72.8 "/>
<polygon class="st0" points="375.6,72.9 352.3,53.3 328.1,72.9 "/>
<polygon class="st2" points="375.6,72.9 352.3,53.3 328.1,72.9 "/>
<path class="st1" d="M349.7,48l2.6-13.2l2.6,13.2H349.7z M358.9,27h-13.4l-7.8,35l14.5-11.7L367.3,63L358.9,27"/>
<path class="st1" d="M393.4,29.1c0.5,0,0.6-0.2,0.6-0.5s-0.1-0.4-0.5-0.4h-0.6v0.9H393.4z M392.8,29.6V31h-0.5v-3.4h1.1
	c0.6,0,1.3,0.2,1.3,0.9c0,0.4-0.2,0.7-0.7,0.8l0,0c0.5,0.1,0.5,0.3,0.6,0.7c0,0.3,0.1,0.7,0.2,1H394c0-0.2-0.1-0.4-0.1-0.6
	c0-0.3,0-0.6-0.2-0.7c-0.1-0.1-0.3-0.1-0.5-0.1L392.8,29.6 M395.8,29.4c0-1.3-1.1-2.3-2.3-2.3c-1.3,0-2.4,1.1-2.4,2.3
	c0,1.3,1.1,2.4,2.4,2.4C394.7,31.8,395.8,30.7,395.8,29.4 M390.6,29.4c0-1.6,1.3-2.9,2.9-2.9s2.8,1.3,2.8,2.9s-1.3,2.9-2.8,2.9
	C391.8,32.3,390.6,31,390.6,29.4"/>
<path d="M123.5,64.6h6.4V44.4c0-7.3-5.4-9.8-13.3-9.8c-4.8,0-8.3,1.2-10.8,4.3l5,3.6c1.1-1.7,2.7-2.3,6-2.3c4.6,0,6.5,1,6.5,3.8v3.1
	h-8.9c-6.9,0-10.4,4-10.4,8.8c0,5.2,4.1,9.1,11.3,9.1c4.3,0,6.5-0.9,7.9-3h0.1v2.6H123.5z M123.5,54.2c0,4.6-1.8,5.2-7.2,5.2
	c-4.3,0-6-1.8-6-3.7c0-2.2,1.8-3.6,5.5-3.6h7.7V54.2"/>
<polygon points="130.9,34.9 137.7,34.9 145.2,55.7 145.3,55.7 152.8,34.9 159.6,34.9 147.9,64.6 142.6,64.6 "/>
<path d="M186.2,52v-4.9c0-7.7-6.1-12.5-13.1-12.5c-6.2,0-13.1,3.8-13.1,15.3c0,12.2,7.6,15.1,14.2,15.1c4.3,0,8.4-1.4,11.5-4.8
	l-4.7-3.7c-1.9,1.8-4.5,2.9-7,2.9c-4.4,0-7.6-2.5-7.6-7.3h19.8L186.2,52L186.2,52z M166.3,47.1c0.1-4.5,3-6.9,6.7-6.9
	c3.8,0,6.5,2.4,6.7,6.9H166.3"/>
<path d="M193.6,55.6c2.8,2.5,5.8,3.8,10.1,3.8c3.7,0,6.3-1.3,6.3-3.8c0-2.1-1.7-2.8-3.9-2.9l-5.7-0.5c-5.3-0.4-9.2-3.3-9.2-8.4
	c0-6,5.2-9.1,11.9-9.1c5.6,0,9.4,1.6,12.5,4l-4,4.3c-2.5-1.6-5.1-2.8-8.6-2.8c-4.1,0-5.5,1.5-5.5,3.6c0,1.3,1,2.6,4.2,2.8l5.3,0.3
	c6.6,0.4,9.2,4.2,9.2,8.9c0,5.8-5.8,9.1-13.2,9.1c-5.2,0-9.9-1.8-14-5.3L193.6,55.6z"/>
<path d="M246,59.8c-2.8,3-6.6,5.2-11.4,5.2c-7.4,0-14.5-4.3-14.5-15.2s7.1-15.2,14.5-15.2c4.8,0,8.7,2.2,11.4,5.2l-4.7,3.9
	c-1.6-1.8-3.8-3.1-6.5-3.1c-5.2,0-8.3,2.8-8.3,9.3c0,6.4,3.1,9.2,8.3,9.2c2.6,0,4.9-1.3,6.5-3.1L246,59.8z"/>
<path d="M248.7,49.8c0,6.4,1,8.9,3.5,11.4c1.8,1.8,4.7,3.8,9.7,3.8s7.9-2,9.7-3.8c2.4-2.5,3.5-5,3.5-11.4s-1-8.8-3.5-11.4
	c-1.8-1.8-4.7-3.8-9.7-3.8s-7.9,2-9.7,3.8C249.7,40.9,248.7,43.4,248.7,49.8z M268.5,49.8c0,4.3-0.4,5.4-1.6,7
	c-0.9,1.2-3,2.2-5.1,2.2c-2.2,0-4.2-0.9-5.2-2.2c-1.2-1.6-1.6-2.7-1.6-7.1c0-4.3,0.4-5.5,1.6-7c0.9-1.2,2.9-2.2,5.2-2.2
	c2.2,0,4.2,0.9,5.1,2.2C268.2,44.3,268.5,45.5,268.5,49.8"/>
<path d="M76.7,58.1h-5.8l5.7-17h6.3L76.7,58.1z M58.9,58.1l5.7-17h6.3l-6.2,17H58.9 M50,31.8v35.7h41.8V31.8H50"/>
</svg>
