<?xml version="1.0" encoding="utf-8"?>
<!-- Generator: Adobe Illustrator 25.4.1, SVG Export Plug-In . SVG Version: 6.00 Build 0)  -->
<svg version="1.1" id="Calque_1" xmlns="http://www.w3.org/2000/svg" xmlns:xlink="http://www.w3.org/1999/xlink" x="0px" y="0px"
	 viewBox="0 0 145.32 69.1" style="enable-background:new 0 0 145.32 69.1;" xml:space="preserve">
<style type="text/css">
	.Voûte _x002D__x0020_Vert{fill:url(#SVGID_1_);stroke:#FFFFFF;stroke-width:0.25;stroke-miterlimit:1;}
	.st0{fill:#0077C8;}
	.st1{fill:#78BE22;}
	.st2{fill:#D52B1E;}
	.st3{fill:#FFFFFF;}
</style>
<linearGradient id="SVGID_1_" gradientUnits="userSpaceOnUse" x1="476.0335" y1="-1216.2948" x2="476.7406" y2="-1217.002">
	<stop  offset="0" style="stop-color:#339A2A"/>
	<stop  offset="0.9831" style="stop-color:#121E0D"/>
</linearGradient>
<g id="PANTONE">
</g>
<g>
	<g>
		<g>
			<g>
				<path class="st0" d="M52.11,26.05c0.11-0.01,0.21-0.02,0.32-0.04c0.09-0.01,0.19-0.02,0.28-0.03c0.09-0.01,0.17-0.02,0.26-0.02
					c0.17,0,0.34,0.02,0.52,0.05c0.18,0.04,0.36,0.1,0.52,0.2c0.16,0.09,0.29,0.23,0.4,0.42c0.11,0.18,0.16,0.42,0.16,0.72v8.62
					h3.47c0.28,0,0.52,0.04,0.71,0.11c0.19,0.07,0.34,0.17,0.44,0.28c0.11,0.12,0.18,0.26,0.22,0.41c0.04,0.15,0.06,0.31,0.06,0.46
					c0,0.12,0,0.27-0.01,0.44c-0.01,0.18-0.01,0.27-0.03,0.27h-7.33V26.05z"/>
				<path class="st0" d="M68.11,33.69c0,0.59-0.07,1.16-0.22,1.71c-0.15,0.55-0.39,1.03-0.73,1.44c-0.34,0.42-0.77,0.75-1.31,1
					c-0.53,0.25-1.18,0.37-1.94,0.37c-0.76,0-1.4-0.12-1.93-0.36c-0.53-0.24-0.96-0.57-1.29-0.98c-0.33-0.41-0.58-0.88-0.73-1.42
					s-0.23-1.11-0.23-1.7c0-0.6,0.09-1.18,0.27-1.72c0.18-0.54,0.44-1.01,0.79-1.42c0.35-0.41,0.79-0.73,1.32-0.97
					c0.53-0.24,1.16-0.36,1.87-0.36c0.75,0,1.38,0.12,1.91,0.36c0.53,0.24,0.95,0.56,1.28,0.96c0.33,0.4,0.56,0.87,0.71,1.4
					C68.04,32.54,68.11,33.1,68.11,33.69z M65.7,33.71c0-0.32-0.02-0.64-0.07-0.95c-0.05-0.31-0.14-0.59-0.27-0.83
					c-0.13-0.24-0.31-0.43-0.54-0.58c-0.23-0.15-0.51-0.22-0.86-0.22c-0.35,0-0.63,0.08-0.87,0.23c-0.23,0.15-0.42,0.35-0.55,0.6
					c-0.14,0.24-0.24,0.52-0.3,0.83c-0.06,0.31-0.09,0.62-0.09,0.94c0,0.32,0.03,0.64,0.08,0.96c0.05,0.32,0.15,0.61,0.28,0.86
					c0.13,0.26,0.31,0.46,0.55,0.61c0.23,0.15,0.52,0.23,0.87,0.23c0.36,0,0.65-0.08,0.88-0.23c0.23-0.15,0.41-0.36,0.54-0.61
					c0.13-0.26,0.22-0.54,0.27-0.86C65.67,34.37,65.7,34.04,65.7,33.71z"/>
				<path class="st0" d="M76.88,37.29c0,0.7-0.07,1.34-0.21,1.91c-0.14,0.58-0.37,1.07-0.71,1.49c-0.34,0.41-0.79,0.73-1.34,0.96
					c-0.56,0.22-1.26,0.34-2.1,0.34c-0.71,0-1.3-0.05-1.75-0.16c-0.46-0.11-0.82-0.24-1.09-0.39c-0.24-0.13-0.39-0.27-0.45-0.41
					c-0.07-0.14-0.1-0.28-0.1-0.41c0-0.19,0.08-0.41,0.23-0.67c0.15-0.26,0.31-0.48,0.46-0.69c0.08,0.08,0.2,0.18,0.35,0.28
					c0.15,0.11,0.33,0.21,0.54,0.31c0.21,0.1,0.45,0.19,0.72,0.26c0.27,0.07,0.56,0.11,0.88,0.11c0.46,0,0.84-0.06,1.13-0.19
					c0.29-0.12,0.52-0.3,0.68-0.53s0.28-0.51,0.35-0.84c0.06-0.33,0.1-0.71,0.1-1.14V37.2c-0.17,0.2-0.43,0.39-0.8,0.56
					c-0.37,0.17-0.83,0.26-1.39,0.26c-0.44,0-0.86-0.07-1.27-0.2c-0.41-0.14-0.77-0.37-1.09-0.7s-0.58-0.77-0.76-1.31
					c-0.19-0.54-0.28-1.21-0.28-2.02c0-0.82,0.1-1.51,0.29-2.08c0.2-0.57,0.46-1.03,0.78-1.4c0.33-0.36,0.7-0.62,1.12-0.78
					c0.42-0.16,0.86-0.24,1.32-0.24c0.52,0,0.95,0.09,1.3,0.27c0.34,0.18,0.61,0.4,0.8,0.68c0.09-0.27,0.27-0.47,0.53-0.59
					c0.26-0.12,0.56-0.18,0.91-0.18c0.09,0,0.2,0,0.3,0.01c0.11,0.01,0.2,0.01,0.28,0.03c0.09,0.01,0.18,0.02,0.27,0.04V37.29z
					 M71.46,33.64c0,0.83,0.12,1.48,0.37,1.96c0.25,0.48,0.72,0.72,1.41,0.72c0.41,0,0.74-0.08,0.98-0.24
					c0.24-0.16,0.35-0.37,0.35-0.63v-3.81c-0.09-0.09-0.26-0.21-0.49-0.34c-0.23-0.13-0.5-0.2-0.81-0.2
					C72.06,31.12,71.46,31.96,71.46,33.64z"/>
				<path class="st0" d="M80.86,38.05c-0.05,0.02-0.15,0.04-0.32,0.05c-0.17,0.01-0.34,0.02-0.53,0.02c-0.24,0-0.45-0.02-0.64-0.06
					c-0.19-0.04-0.35-0.12-0.49-0.23c-0.14-0.11-0.24-0.26-0.32-0.45c-0.08-0.19-0.12-0.43-0.12-0.73v-7.11
					c0-0.01,0.09-0.03,0.27-0.05c0.18-0.02,0.36-0.03,0.55-0.03c0.19,0,0.38,0.02,0.57,0.05c0.19,0.03,0.36,0.1,0.52,0.2
					c0.15,0.1,0.28,0.24,0.37,0.43c0.09,0.18,0.14,0.42,0.14,0.72V38.05z"/>
				<path class="st0" d="M86.81,27.11c-0.12-0.01-0.24-0.01-0.36-0.01c-0.49,0-0.89,0.13-1.17,0.37c-0.29,0.25-0.43,0.71-0.43,1.37
					v0.64h2.08v1.83h-2.08v6.63h-2.42v-9.03c0-0.27,0.01-0.54,0.04-0.79c0.03-0.25,0.07-0.48,0.13-0.68
					c0.21-0.71,0.67-1.26,1.36-1.65c0.69-0.39,1.52-0.59,2.48-0.59c0.12,0,0.25,0,0.37,0.01L86.81,27.11z"/>
				<path class="st0" d="M95.91,36.43c0.3,0,0.56-0.03,0.79-0.1c0.23-0.06,0.43-0.14,0.61-0.24c0.18-0.09,0.33-0.2,0.46-0.31
					c0.13-0.11,0.25-0.22,0.36-0.31c0.14,0.18,0.29,0.41,0.45,0.69c0.15,0.28,0.23,0.51,0.23,0.68c0,0.26-0.15,0.5-0.44,0.71
					c-0.25,0.19-0.6,0.35-1.06,0.49c-0.46,0.14-0.99,0.2-1.61,0.2c-0.56,0-1.11-0.07-1.64-0.21c-0.54-0.14-1.02-0.39-1.44-0.75
					c-0.42-0.36-0.76-0.83-1.02-1.43c-0.26-0.6-0.39-1.35-0.39-2.27c0-0.75,0.12-1.39,0.35-1.93c0.23-0.54,0.54-0.99,0.92-1.34
					c0.39-0.36,0.82-0.62,1.31-0.78c0.49-0.17,0.98-0.25,1.49-0.25c0.66,0,1.23,0.1,1.69,0.31s0.84,0.49,1.13,0.84
					c0.29,0.35,0.5,0.75,0.63,1.2c0.13,0.45,0.2,0.92,0.2,1.42c0,0.07,0,0.15,0,0.25c0,0.09,0,0.2-0.01,0.3
					c-0.01,0.11-0.01,0.21-0.02,0.31c-0.01,0.1-0.01,0.18-0.03,0.24h-5.25c0.05,0.65,0.25,1.19,0.61,1.63
					C94.58,36.22,95.14,36.43,95.91,36.43z M96.72,32.82c0-0.57-0.11-1.03-0.33-1.39c-0.22-0.36-0.62-0.53-1.19-0.53
					c-0.49,0-0.88,0.17-1.17,0.51c-0.29,0.34-0.44,0.81-0.44,1.41H96.72z"/>
				<path class="st0" d="M104.34,36.43c0.3,0,0.56-0.03,0.79-0.1c0.23-0.06,0.43-0.14,0.61-0.24c0.18-0.09,0.33-0.2,0.46-0.31
					c0.13-0.11,0.25-0.22,0.36-0.31c0.14,0.18,0.29,0.41,0.45,0.69c0.15,0.28,0.23,0.51,0.23,0.68c0,0.26-0.15,0.5-0.44,0.71
					c-0.25,0.19-0.6,0.35-1.06,0.49c-0.46,0.14-0.99,0.2-1.61,0.2c-0.56,0-1.11-0.07-1.64-0.21c-0.54-0.14-1.02-0.39-1.44-0.75
					c-0.42-0.36-0.76-0.83-1.02-1.43c-0.26-0.6-0.39-1.35-0.39-2.27c0-0.75,0.12-1.39,0.35-1.93c0.23-0.54,0.54-0.99,0.92-1.34
					c0.39-0.36,0.82-0.62,1.31-0.78c0.49-0.17,0.98-0.25,1.49-0.25c0.66,0,1.23,0.1,1.69,0.31s0.84,0.49,1.13,0.84
					c0.29,0.35,0.5,0.75,0.63,1.2c0.13,0.45,0.2,0.92,0.2,1.42c0,0.07,0,0.15,0,0.25c0,0.09,0,0.2-0.01,0.3
					c-0.01,0.11-0.01,0.21-0.02,0.31c-0.01,0.1-0.01,0.18-0.03,0.24h-5.25c0.05,0.65,0.25,1.19,0.61,1.63
					C103,36.22,103.57,36.43,104.34,36.43z M105.15,32.82c0-0.57-0.11-1.03-0.33-1.39c-0.22-0.36-0.62-0.53-1.19-0.53
					c-0.49,0-0.88,0.17-1.17,0.51c-0.29,0.34-0.44,0.81-0.44,1.41H105.15z"/>
				<path class="st0" d="M108.89,36.66c-0.08-0.24-0.14-0.49-0.16-0.75c-0.02-0.26-0.04-0.52-0.04-0.78v-8.25
					c0.08-0.01,0.17-0.02,0.27-0.04c0.08-0.01,0.17-0.02,0.27-0.03c0.09-0.01,0.19-0.01,0.28-0.01c0.19,0,0.38,0.02,0.57,0.05
					c0.19,0.04,0.36,0.11,0.52,0.21c0.15,0.11,0.28,0.25,0.37,0.44c0.09,0.18,0.14,0.42,0.14,0.72v1.24h2.49v1.81h-2.49v3.79
					c0,0.83,0.34,1.24,1.01,1.24c0.17,0,0.32-0.03,0.47-0.08c0.15-0.05,0.28-0.11,0.4-0.18c0.12-0.06,0.22-0.13,0.31-0.2
					c0.09-0.07,0.15-0.12,0.19-0.16c0.18,0.26,0.31,0.49,0.41,0.68c0.09,0.19,0.14,0.37,0.14,0.54c0,0.16-0.06,0.31-0.19,0.46
					c-0.12,0.15-0.3,0.29-0.52,0.41c-0.23,0.13-0.5,0.23-0.82,0.3c-0.32,0.08-0.67,0.12-1.05,0.12c-0.74,0-1.31-0.14-1.72-0.43
					C109.34,37.5,109.05,37.13,108.89,36.66z"/>
			</g>
			<path class="st0" d="M90.16,25.39v12.66c0,0.01-0.09,0.03-0.27,0.04c-0.18,0.02-0.36,0.03-0.55,0.03c-0.19,0-0.38-0.02-0.57-0.06
				c-0.19-0.04-0.36-0.12-0.52-0.23c-0.15-0.11-0.28-0.26-0.37-0.45c-0.1-0.19-0.14-0.43-0.14-0.73V25.39L90.16,25.39z"/>
			<path class="st1" d="M80.88,26.69c0,0.38-0.13,0.69-0.38,0.93c-0.26,0.24-0.56,0.36-0.92,0.36c-0.37,0-0.68-0.12-0.92-0.36
				s-0.37-0.55-0.37-0.93c0-0.38,0.12-0.69,0.37-0.93c0.25-0.24,0.56-0.36,0.92-0.36c0.36,0,0.66,0.12,0.92,0.36
				C80.75,26,80.88,26.31,80.88,26.69z"/>
			<g>
				<path class="st0" d="M117.23,28.07c-0.03-0.03-0.06-0.06-0.09-0.08c0.1-0.03,0.18-0.08,0.25-0.15c0.09-0.09,0.13-0.21,0.13-0.33
					c0-0.11-0.02-0.2-0.07-0.27c-0.05-0.08-0.12-0.14-0.21-0.18c-0.09-0.04-0.2-0.06-0.33-0.06h-0.8c-0.02,0-0.04,0.02-0.04,0.04
					v1.69c0,0.02,0.02,0.04,0.04,0.04h0.35c0.02,0,0.04-0.02,0.04-0.04v-0.65h0.05c0.06,0,0.11,0.01,0.15,0.03
					c0.04,0.02,0.08,0.05,0.12,0.11c0.04,0.06,0.1,0.15,0.16,0.26l0.14,0.27c0.01,0.01,0.02,0.02,0.04,0.02h0.43
					c0.01,0,0.03-0.01,0.03-0.02c0.01-0.01,0.01-0.03,0-0.04l-0.2-0.34C117.34,28.22,117.27,28.13,117.23,28.07z M116.49,27.33h0.27
					c0.11,0,0.19,0.02,0.24,0.05c0.05,0.03,0.07,0.07,0.07,0.12c0,0.08-0.02,0.13-0.07,0.16c-0.06,0.03-0.15,0.04-0.27,0.04h-0.24
					V27.33z"/>
				<path class="st0" d="M118.33,27.23c-0.08-0.2-0.2-0.37-0.35-0.52c-0.15-0.15-0.33-0.27-0.52-0.35c-0.2-0.08-0.41-0.12-0.63-0.12
					c-0.29,0-0.57,0.07-0.82,0.22c-0.25,0.14-0.45,0.34-0.59,0.59c-0.14,0.25-0.22,0.52-0.22,0.82c0,0.29,0.07,0.57,0.22,0.82
					c0.15,0.25,0.34,0.45,0.59,0.59c0.25,0.15,0.52,0.22,0.82,0.22c0.29,0,0.57-0.07,0.82-0.22c0.25-0.15,0.45-0.35,0.59-0.59
					c0.15-0.25,0.22-0.52,0.22-0.82C118.45,27.64,118.41,27.43,118.33,27.23z M118.06,27.86c0,0.22-0.06,0.43-0.17,0.62
					c-0.11,0.19-0.26,0.34-0.45,0.45c-0.19,0.11-0.4,0.17-0.62,0.17c-0.22,0-0.43-0.06-0.62-0.17c-0.19-0.11-0.34-0.26-0.45-0.45
					c-0.11-0.19-0.17-0.4-0.17-0.62c0-0.22,0.06-0.43,0.17-0.62c0.11-0.19,0.26-0.34,0.45-0.45c0.19-0.11,0.4-0.17,0.62-0.17
					c0.22,0,0.43,0.06,0.62,0.17c0.19,0.11,0.34,0.26,0.45,0.45C118.01,27.43,118.06,27.64,118.06,27.86z"/>
			</g>
		</g>
		<g>
			<g>
				<path class="st0" d="M46.14,37.89l-3.36-7.57l-0.3,0.3c-0.28,0.25-0.54,0.45-0.77,0.62l2.77,6.24h-1.84h-1.49h-0.38l-1.06-2.04
					c0-0.01-0.01-0.01-0.02-0.02l-0.01-0.01c-0.12-0.23-0.35-0.37-0.6-0.37h-2.2l-0.29-0.38h1.91c0.24,0,0.46-0.13,0.58-0.33
					c0.12-0.21,0.13-0.46,0.01-0.67l-0.95-1.73c-0.12-0.22-0.35-0.35-0.59-0.35h-3.2l-0.19-0.24l0.1-0.36h3.94h0.41
					c-0.13-0.1-0.25-0.2-0.39-0.32l-0.63-0.62c-0.13-0.14-0.22-0.28-0.33-0.41H32.5h-1.6c-0.27,0-0.52,0.16-0.62,0.41l-3.36,7.87
					c-0.09,0.21-0.07,0.45,0.06,0.64c0.13,0.19,0.34,0.3,0.56,0.3h12.79h1.87h3.32c0.23,0,0.44-0.12,0.57-0.31
					C46.22,38.34,46.24,38.1,46.14,37.89z M33.74,32.86c0.09,0.04,0.18,0.07,0.28,0.07h3.13l0.21,0.38h-2.13
					c-0.26,0-0.49,0.15-0.61,0.38s-0.09,0.51,0.07,0.71l0.52,0.69h-2.1L33.74,32.86z M28.57,37.49l2.78-6.52h0.82l0.51,0.66
					l-1.1,3.95c-0.06,0.2-0.01,0.42,0.11,0.59c0.13,0.17,0.33,0.27,0.54,0.27h6.46l0.54,1.05H28.57z"/>
			</g>
			<g>
				<path class="st1" d="M40.34,21.43c-2.51,0-4.55,2.04-4.55,4.55c0,1.37,0.62,2.76,1.81,4.05l0.63,0.62
					c0.75,0.67,1.42,1.08,1.5,1.12c0.19,0.11,0.4,0.16,0.61,0.16s0.42-0.06,0.61-0.17c0.07-0.04,0.74-0.44,1.53-1.15l0.6-0.59
					c0.01-0.01,0.02-0.02,0.03-0.03c1.17-1.26,1.78-2.65,1.78-4.02C44.89,23.47,42.85,21.43,40.34,21.43z M40.34,30.32
					c-0.66-0.43-3.01-2.13-3.01-4.34c0-1.66,1.35-3.01,3.01-3.01s3.01,1.35,3.01,3.01C43.35,28.19,41,29.89,40.34,30.32z"/>
				<path class="st1" d="M40.34,25.41c-0.28,0-0.52,0.09-0.71,0.28c-0.19,0.19-0.29,0.42-0.29,0.71c0,0.29,0.1,0.53,0.29,0.71
					c0.19,0.18,0.43,0.27,0.71,0.27c0.27,0,0.51-0.09,0.7-0.27c0.2-0.18,0.29-0.42,0.29-0.71c0-0.29-0.1-0.53-0.29-0.71
					C40.85,25.5,40.61,25.41,40.34,25.41z"/>
			</g>
		</g>
	</g>
	<g>
		<g>
			<path class="st2" d="M85.05,46.83h-2.23v-2.24c0-1.45,1.18-2.62,2.62-2.62h2.24v2.23C87.68,45.65,86.51,46.83,85.05,46.83z"/>
			<polygon class="st3" points="86.65,43.97 85.67,43.97 85.67,42.98 84.83,42.98 84.83,43.97 83.85,43.97 83.85,44.83 84.83,44.83 
				84.83,45.82 85.67,45.82 85.67,44.83 86.65,44.83 			"/>
		</g>
		<g>
			<path class="st0" d="M90.48,46.33c-0.23,0-0.45-0.03-0.66-0.08c-0.21-0.05-0.4-0.13-0.55-0.24c-0.06-0.04-0.1-0.1-0.11-0.16
				c-0.01-0.06-0.01-0.12,0.02-0.17c0.02-0.05,0.06-0.09,0.11-0.11c0.05-0.02,0.11-0.01,0.18,0.03c0.15,0.1,0.31,0.17,0.47,0.21
				s0.35,0.07,0.54,0.07c0.28,0,0.49-0.05,0.63-0.15c0.13-0.1,0.2-0.23,0.2-0.4c0-0.13-0.05-0.24-0.15-0.32
				c-0.1-0.08-0.26-0.14-0.48-0.19l-0.53-0.11c-0.32-0.07-0.55-0.18-0.71-0.33c-0.15-0.15-0.23-0.36-0.23-0.62
				c0-0.21,0.06-0.39,0.17-0.55c0.11-0.16,0.27-0.28,0.47-0.37c0.2-0.09,0.43-0.13,0.69-0.13c0.21,0,0.4,0.03,0.58,0.08
				c0.18,0.05,0.34,0.13,0.49,0.24c0.06,0.04,0.09,0.09,0.1,0.15c0.01,0.06,0,0.11-0.02,0.16c-0.03,0.05-0.07,0.08-0.12,0.1
				s-0.11,0-0.18-0.04c-0.13-0.09-0.26-0.15-0.4-0.19c-0.14-0.04-0.28-0.06-0.44-0.06c-0.25,0-0.44,0.05-0.59,0.17
				c-0.15,0.11-0.22,0.26-0.22,0.44c0,0.14,0.04,0.25,0.13,0.33s0.24,0.15,0.45,0.19l0.53,0.11c0.33,0.07,0.58,0.18,0.74,0.32
				c0.16,0.15,0.25,0.34,0.25,0.59c0,0.21-0.06,0.39-0.17,0.54s-0.26,0.27-0.46,0.36C91,46.29,90.76,46.33,90.48,46.33z"/>
			<path class="st0" d="M93.02,46.32c-0.15,0-0.25-0.07-0.3-0.22l-0.73-1.94c-0.04-0.1-0.04-0.18,0-0.25
				c0.04-0.07,0.11-0.1,0.21-0.1c0.06,0,0.11,0.01,0.15,0.04s0.07,0.08,0.1,0.16l0.59,1.68l0.62-1.7c0.05-0.12,0.13-0.18,0.25-0.18
				c0.12,0,0.21,0.06,0.25,0.18l0.61,1.71l0.61-1.7c0.03-0.08,0.06-0.13,0.1-0.16s0.09-0.04,0.14-0.04c0.1,0,0.16,0.04,0.19,0.11
				c0.03,0.07,0.03,0.15-0.01,0.24l-0.73,1.94c-0.06,0.15-0.16,0.22-0.3,0.22c-0.15,0-0.25-0.07-0.3-0.22l-0.57-1.56l-0.57,1.56
				C93.26,46.25,93.16,46.32,93.02,46.32z"/>
			<path class="st0" d="M96.4,43.3c-0.1,0-0.18-0.02-0.23-0.07c-0.05-0.05-0.08-0.12-0.08-0.21c0-0.19,0.1-0.29,0.31-0.29
				c0.21,0,0.31,0.1,0.31,0.29S96.61,43.3,96.4,43.3z M96.4,46.32c-0.17,0-0.25-0.09-0.25-0.28v-1.95c0-0.18,0.08-0.27,0.25-0.27
				c0.17,0,0.25,0.09,0.25,0.27v1.95C96.66,46.23,96.57,46.32,96.4,46.32z"/>
			<path class="st0" d="M98.02,46.33c-0.15,0-0.3-0.02-0.45-0.05c-0.16-0.03-0.3-0.09-0.42-0.17c-0.06-0.03-0.09-0.08-0.1-0.12
				c-0.01-0.05-0.01-0.1,0.01-0.14s0.05-0.07,0.1-0.09c0.04-0.02,0.1-0.01,0.15,0.02c0.13,0.07,0.25,0.12,0.38,0.15
				c0.12,0.03,0.24,0.04,0.35,0.04c0.18,0,0.31-0.03,0.4-0.1c0.09-0.06,0.13-0.15,0.13-0.25c0-0.09-0.03-0.15-0.09-0.2
				c-0.06-0.05-0.15-0.08-0.27-0.11l-0.47-0.09c-0.42-0.09-0.63-0.3-0.63-0.65c0-0.23,0.09-0.41,0.27-0.55
				c0.18-0.14,0.42-0.21,0.72-0.21c0.3,0,0.56,0.07,0.77,0.22c0.05,0.03,0.08,0.07,0.1,0.12c0.01,0.05,0,0.09-0.02,0.13
				c-0.02,0.04-0.06,0.07-0.1,0.09s-0.1,0.01-0.16-0.02c-0.1-0.06-0.2-0.1-0.3-0.13c-0.1-0.03-0.2-0.04-0.29-0.04
				c-0.17,0-0.3,0.03-0.39,0.1c-0.09,0.07-0.14,0.15-0.14,0.26c0,0.17,0.11,0.27,0.33,0.32l0.47,0.09c0.22,0.04,0.38,0.12,0.49,0.22
				c0.11,0.1,0.17,0.24,0.17,0.42c0,0.23-0.09,0.42-0.27,0.55S98.32,46.33,98.02,46.33z"/>
			<path class="st0" d="M100.24,46.33c-0.15,0-0.3-0.02-0.45-0.05c-0.16-0.03-0.3-0.09-0.42-0.17c-0.06-0.03-0.09-0.08-0.1-0.12
				c-0.01-0.05-0.01-0.1,0.01-0.14s0.05-0.07,0.1-0.09c0.04-0.02,0.1-0.01,0.15,0.02c0.13,0.07,0.25,0.12,0.38,0.15
				c0.12,0.03,0.24,0.04,0.35,0.04c0.18,0,0.31-0.03,0.4-0.1c0.09-0.06,0.13-0.15,0.13-0.25c0-0.09-0.03-0.15-0.09-0.2
				c-0.06-0.05-0.15-0.08-0.27-0.11l-0.47-0.09c-0.42-0.09-0.63-0.3-0.63-0.65c0-0.23,0.09-0.41,0.27-0.55
				c0.18-0.14,0.42-0.21,0.72-0.21c0.3,0,0.56,0.07,0.77,0.22c0.05,0.03,0.08,0.07,0.1,0.12c0.01,0.05,0,0.09-0.02,0.13
				c-0.02,0.04-0.06,0.07-0.1,0.09s-0.1,0.01-0.16-0.02c-0.1-0.06-0.2-0.1-0.3-0.13c-0.1-0.03-0.2-0.04-0.29-0.04
				c-0.17,0-0.3,0.03-0.39,0.1c-0.09,0.07-0.14,0.15-0.14,0.26c0,0.17,0.11,0.27,0.33,0.32l0.47,0.09c0.22,0.04,0.38,0.12,0.49,0.22
				c0.11,0.1,0.17,0.24,0.17,0.42c0,0.23-0.09,0.42-0.27,0.55S100.54,46.33,100.24,46.33z"/>
			<path class="st0" d="M102.98,46.32c-0.17,0-0.25-0.08-0.25-0.25v-2c0-0.17,0.08-0.25,0.24-0.25s0.24,0.08,0.24,0.25v0.17
				c0.07-0.14,0.17-0.25,0.3-0.32c0.13-0.08,0.28-0.12,0.45-0.12c0.37,0,0.61,0.16,0.72,0.49c0.08-0.15,0.19-0.27,0.33-0.36
				c0.14-0.09,0.31-0.13,0.49-0.13c0.55,0,0.82,0.33,0.82,0.98v1.28c0,0.17-0.08,0.25-0.25,0.25c-0.17,0-0.25-0.08-0.25-0.25v-1.26
				c0-0.21-0.04-0.36-0.11-0.45c-0.07-0.1-0.19-0.15-0.35-0.15c-0.18,0-0.33,0.06-0.43,0.19c-0.11,0.13-0.16,0.3-0.16,0.52v1.14
				c0,0.17-0.08,0.25-0.25,0.25c-0.17,0-0.25-0.08-0.25-0.25v-1.26c0-0.21-0.04-0.36-0.1-0.45c-0.07-0.1-0.19-0.15-0.35-0.15
				c-0.18,0-0.33,0.06-0.43,0.19s-0.16,0.3-0.16,0.52v1.14C103.24,46.24,103.15,46.32,102.98,46.32z"/>
			<path class="st0" d="M107.63,46.33c-0.17,0-0.32-0.03-0.45-0.1s-0.24-0.16-0.32-0.27c-0.08-0.11-0.12-0.24-0.12-0.38
				c0-0.18,0.05-0.32,0.14-0.42c0.09-0.1,0.24-0.18,0.45-0.22s0.5-0.07,0.86-0.07h0.17v-0.13c0-0.19-0.04-0.33-0.12-0.41
				s-0.21-0.12-0.39-0.12c-0.11,0-0.22,0.01-0.33,0.04c-0.12,0.03-0.23,0.07-0.36,0.13c-0.07,0.03-0.13,0.04-0.17,0.01
				s-0.08-0.06-0.09-0.11s-0.02-0.1,0-0.16c0.02-0.05,0.06-0.09,0.12-0.12c0.15-0.07,0.29-0.12,0.43-0.15
				c0.14-0.03,0.28-0.05,0.4-0.05c0.33,0,0.58,0.08,0.74,0.24c0.16,0.16,0.24,0.41,0.24,0.74v1.28c0,0.17-0.08,0.25-0.23,0.25
				c-0.16,0-0.24-0.08-0.24-0.25v-0.18c-0.06,0.14-0.15,0.25-0.28,0.33S107.8,46.33,107.63,46.33z M107.73,45.97
				c0.18,0,0.33-0.06,0.45-0.19c0.12-0.13,0.18-0.29,0.18-0.48v-0.13h-0.17c-0.24,0-0.43,0.01-0.57,0.04s-0.24,0.06-0.29,0.12
				c-0.06,0.06-0.09,0.13-0.09,0.23c0,0.13,0.04,0.23,0.13,0.31C107.45,45.93,107.57,45.97,107.73,45.97z"/>
			<path class="st0" d="M110.26,46.33c-0.21,0-0.4-0.05-0.56-0.15s-0.29-0.25-0.38-0.44c-0.09-0.19-0.13-0.41-0.13-0.67
				s0.04-0.48,0.13-0.67s0.21-0.33,0.37-0.44c0.16-0.1,0.35-0.15,0.56-0.15c0.18,0,0.35,0.04,0.49,0.12
				c0.14,0.08,0.25,0.19,0.32,0.32v-1.26c0-0.17,0.08-0.25,0.25-0.25c0.17,0,0.25,0.08,0.25,0.25v3.08c0,0.17-0.08,0.25-0.25,0.25
				s-0.25-0.08-0.25-0.25v-0.19c-0.07,0.14-0.18,0.25-0.32,0.33C110.6,46.29,110.44,46.33,110.26,46.33z M110.39,45.94
				c0.21,0,0.37-0.08,0.5-0.22c0.13-0.15,0.19-0.37,0.19-0.65s-0.06-0.5-0.19-0.65c-0.13-0.15-0.29-0.22-0.5-0.22
				c-0.21,0-0.38,0.07-0.5,0.22c-0.13,0.15-0.19,0.36-0.19,0.65s0.06,0.5,0.19,0.65C110.01,45.87,110.18,45.94,110.39,45.94z"/>
			<path class="st0" d="M113.23,46.33c-0.4,0-0.71-0.11-0.94-0.34c-0.23-0.22-0.34-0.53-0.34-0.92c0-0.25,0.05-0.47,0.15-0.66
				c0.1-0.19,0.24-0.34,0.42-0.45s0.39-0.16,0.62-0.16c0.34,0,0.6,0.11,0.79,0.32c0.19,0.21,0.29,0.51,0.29,0.89
				c0,0.11-0.07,0.17-0.2,0.17h-1.59c0.04,0.51,0.3,0.76,0.8,0.76c0.1,0,0.21-0.01,0.31-0.04c0.11-0.03,0.22-0.07,0.32-0.14
				c0.07-0.04,0.13-0.05,0.18-0.04c0.05,0.01,0.09,0.04,0.11,0.08c0.02,0.04,0.03,0.09,0.01,0.15c-0.01,0.05-0.05,0.1-0.12,0.14
				c-0.11,0.08-0.25,0.13-0.4,0.17C113.51,46.31,113.36,46.33,113.23,46.33z M113.15,44.16c-0.21,0-0.38,0.07-0.5,0.2
				c-0.12,0.13-0.2,0.3-0.22,0.52h1.36c-0.01-0.23-0.07-0.4-0.18-0.53S113.35,44.16,113.15,44.16z"/>
		</g>
	</g>
</g>
</svg>
