<?xml version="1.0" encoding="utf-8"?>
<!-- Generator: Adobe Illustrator 18.1.1, SVG Export Plug-In . SVG Version: 6.00 Build 0)  -->
<!DOCTYPE svg PUBLIC "-//W3C//DTD SVG 1.1//EN" "http://www.w3.org/Graphics/SVG/1.1/DTD/svg11.dtd">
<svg version="1.1" id="Calque_1" xmlns="http://www.w3.org/2000/svg" xmlns:xlink="http://www.w3.org/1999/xlink" x="0px" y="0px"
	 viewBox="0 0 190.1 46.4" enable-background="new 0 0 190.1 46.4" xml:space="preserve">
<g>
	<g>
		<polygon fill="#8FBF21" points="14.2,11.8 14.2,16 20.1,16 20.1,11.3 		"/>
		<path fill="#1875B4" d="M9.8,29.9c-1.5,0-2.3-0.9-2.3-2.4L8,3.5L1.2,4.5L0.8,29.1c-0.1,5.3,4.1,6,5.9,6c0,0,0.1,0,0.2,0
			c0.2,0,20.4-3.3,20.4-3.3l0.1-4.5C26.5,27.4,9.9,29.9,9.8,29.9z"/>
		<g>
			<path fill="#8FBF21" d="M27.7,6.5c0-2.1-0.6-3.6-2-4.4c-1.2-0.8-2.6-0.9-3.4-0.9c-0.1,0-7,1-11.4,1.8l-0.1,3.5
				c1.9-0.3,8.4-1.2,8.5-1.2c1.8,0,2.9,1.2,2.9,3.1l-0.2,17.3c2.5-0.4,4.6-0.7,5.4-0.8L27.7,6.5z"/>
		</g>
	</g>
	<g>
		<path fill="#1875B4" d="M47.1,27.2v-26l-6.9,0.6v27.6c0,5.6,4.8,6.3,6.8,6.3c1.5,0,2.8-0.3,4-0.6l0.3-5.6
			c-0.5,0.2-1.1,0.3-1.7,0.3C48,29.7,47.1,28.8,47.1,27.2z"/>
	</g>
	<g>
		<path fill="#8FBF21" d="M135.2,32.1h-0.6c-3.7,0-3.9-1.8-3.9-4.7V1.1l-3.9,0.4v26.2c0,1.1,0.1,2.2,0.3,3.2c0,0,0,0.1,0,0.2
			c0.5,2.1,1.7,3.8,4.6,4.5c0,0,0,0,0,0c0.1,0,0.2,0,0.3,0.1c0.7,0.1,1.3,0.2,1.8,0.2c0.9,0,1.7-0.1,2.5-0.3l0.3-3.6
			C136.1,32,135.7,32,135.2,32.1z"/>
	</g>
	<g>
		<path fill="#8FBF21" d="M188,32.1h-0.6c-3.7,0-3.9-1.8-3.9-4.7l0-11.1h5.9v-3.7h-5.9l0-6.7l-3.9,0.3v21.4h0c0,1.1,0.1,2.2,0.3,3.2
			c0,0,0,0.1,0,0.2c0.5,2.1,1.7,3.8,4.6,4.5c0,0,0,0,0,0c0.1,0,0.2,0,0.3,0.1c0.7,0.1,1.3,0.2,1.8,0.2c0.9,0,1.7-0.1,2.5-0.3
			l0.3-3.6C188.9,32,188.4,32,188,32.1z"/>
	</g>
	<path fill="#1875B4" d="M53,24v-1.4c0-6.7,2.9-11.9,11.2-11.9c8.4,0,11.3,5.1,11.3,11.8v1.4c0,6.7-3.5,11.9-11.3,11.9
		C56.5,35.8,53,30.6,53,24z M68.9,23.6V23c0-4.6-1-6.6-4.7-6.6c-3.6,0-4.6,2.1-4.6,6.7v0.5c0,4.5,1.3,6.7,4.6,6.7
		C67.5,30.3,68.9,28.1,68.9,23.6z"/>
	<path fill="#1875B4" d="M77.9,24.1v-1.4c0-6.4,2-11.9,8.9-11.9c3.5,0,5.5,1,7,2.6v-2.2h6.5V36c0,6.1-2.3,9.7-11.2,9.7
		c-7.1,0-10-2.4-11.3-5.3l6.6-2.2c0.5,1.6,1.6,2.2,4.8,2.2c3.4,0,4.6-1.3,4.6-4.2v-3.4c-1.3,1.6-3.4,2.9-7.1,2.9
		C79.5,35.7,77.9,31,77.9,24.1z M93.8,24.8v-3.1c-0.1-3.5-1.4-5.2-5.1-5.2c-3.5,0-4.2,2.5-4.2,6.7v0.6c0,4.3,0.4,6.6,4.2,6.6
		C92.3,30.2,93.7,28.3,93.8,24.8z"/>
	<rect x="104.3" y="11.1" fill="#1875B4" width="6.1" height="24.2"/>
	<path fill="#8FBF21" d="M155.5,22.5c0-4.9-1-10.4-8.9-10.4c-6.2,0-9.4,3.8-9.4,11.3v1.3c0,7.4,3.2,11.1,9.4,11.1
		c6.3,0,8.2-3.9,8.8-6.2l0.1-0.4l-3.9-0.9l-0.1,0.5c-0.4,2-1.4,3.4-5,3.4c-3.6,0-5.4-2.2-5.5-6.9h14.4V22.5z M146.5,15.8
		c3.5,0,4.8,1.5,5,5.7h-10.5C141.4,17.5,143.1,15.8,146.5,15.8z"/>
	<path fill="#8FBF21" d="M176.9,22.5c0-4.9-1-10.4-8.9-10.4c-6.2,0-9.4,3.8-9.4,11.3v1.3c0,7.4,3.2,11.1,9.4,11.1
		c6.3,0,8.2-3.9,8.8-6.2l0.1-0.4l-3.9-0.9l-0.1,0.5c-0.4,2-1.4,3.4-5,3.4c-3.6,0-5.4-2.2-5.5-6.9h14.4V22.5z M167.9,15.8
		c3.5,0,4.8,1.5,5,5.7h-10.5C162.8,17.5,164.5,15.8,167.9,15.8z"/>
	<path fill="#8FBF21" d="M122.2,4.6h2V0.9h-2c-6.8,0-7.7,3.9-7.7,8.1v26.2h3.9V16.1h5.9v-3.7h-5.9v-3C118.3,6.4,118.5,4.6,122.2,4.6
		z"/>
	<path fill="#8FBF21" d="M155.5,22.5c0-4.9-1-10.4-8.9-10.4c-6.2,0-9.4,3.8-9.4,11.3v1.3c0,7.4,3.2,11.1,9.4,11.1
		c6.3,0,8.2-3.9,8.8-6.2l0.1-0.4l-3.9-0.9l-0.1,0.5c-0.4,2-1.4,3.4-5,3.4c-3.6,0-5.4-2.2-5.5-6.9h14.4V22.5z M146.5,15.8
		c3.5,0,4.8,1.5,5,5.7h-10.5C141.4,17.5,143.1,15.8,146.5,15.8z"/>
	<path fill="#8FBF21" d="M176.9,22.5c0-4.9-1-10.4-8.9-10.4c-6.2,0-9.4,3.8-9.4,11.3v1.3c0,7.4,3.2,11.1,9.4,11.1
		c6.3,0,8.2-3.9,8.8-6.2l0.1-0.4l-3.9-0.9l-0.1,0.5c-0.4,2-1.4,3.4-5,3.4c-3.6,0-5.4-2.2-5.5-6.9h14.4V22.5z M167.9,15.8
		c3.5,0,4.8,1.5,5,5.7h-10.5C162.8,17.5,164.5,15.8,167.9,15.8z"/>
	<path fill="#8FBF21" d="M122.2,4.6h2V0.9h-2c-6.8,0-7.7,3.9-7.7,8.1v26.2h3.9V16.1h5.9v-3.7h-5.9v-3C118.3,6.4,118.5,4.6,122.2,4.6
		z"/>
	<polygon fill="#8FBF21" points="104.4,3.5 104.3,7.7 110.4,7.7 110.4,2.9 	"/>
</g>
</svg>
